<?xml version="1.0" standalone="no"?><!DOCTYPE svg PUBLIC "-//W3C//DTD SVG 1.1//EN" "http://www.w3.org/Graphics/SVG/1.1/DTD/svg11.dtd"><svg t="1623005125349" class="icon" viewBox="0 0 1024 1024" version="1.1" xmlns="http://www.w3.org/2000/svg" p-id="3324" xmlns:xlink="http://www.w3.org/1999/xlink" width="200" height="200"><defs><style type="text/css"></style></defs><path d="M886.613333 137.386667a305.066667 305.066667 0 0 1 0 432l-158.506666 158.72-432-432.213334 158.506666-158.506666a305.493333 305.493333 0 0 1 432 0z" fill="#aaaaaa" p-id="3325"></path><path d="M353.493333 1018.453333A347.946667 347.946667 0 0 1 106.666667 424.533333L424.32 106.666667A348.16 348.16 0 1 1 917.333333 599.466667L599.68 917.333333a347.52 347.52 0 0 1-246.186667 101.12zM670.506667 90.666667a262.4 262.4 0 0 0-186.026667 76.8L167.466667 484.693333a262.826667 262.826667 0 1 0 371.84 371.626667l317.013333-317.013333a262.613333 262.613333 0 0 0-185.813333-448.64z" fill="#aaaaaa" p-id="3326"></path></svg>