<?xml version="1.0" standalone="no"?><!DOCTYPE svg PUBLIC "-//W3C//DTD SVG 1.1//EN" "http://www.w3.org/Graphics/SVG/1.1/DTD/svg11.dtd"><svg t="1623005545851" class="icon" viewBox="0 0 1024 1024" version="1.1" xmlns="http://www.w3.org/2000/svg" p-id="5118" xmlns:xlink="http://www.w3.org/1999/xlink" width="200" height="200"><defs><style type="text/css"></style></defs><path d="M916.48 38.765714H107.52a73.142857 73.142857 0 0 0-73.142857 73.142857v541.257143a73.142857 73.142857 0 0 0 73.142857 73.142857h365.714286v174.811429h-263.314286a41.691429 41.691429 0 0 0-41.691429 41.691429 42.422857 42.422857 0 0 0 41.691429 41.691428h604.16a42.422857 42.422857 0 0 0 41.691429-41.691428 41.691429 41.691429 0 0 0-41.691429-41.691429H553.691429V731.428571h365.714285a73.142857 73.142857 0 0 0 73.142857-73.142857V114.834286A73.142857 73.142857 0 0 0 916.48 38.765714z m-8.045714 606.354286H115.565714V122.88h792.868572z" p-id="5119" fill="#1296db"></path><path d="M256 555.154286a43.885714 43.885714 0 0 0 26.331429-8.777143L445.44 416.914286l81.188571 73.142857a40.96 40.96 0 0 0 54.125715 0l219.428571-187.977143a40.96 40.96 0 0 0 4.388572-58.514286 41.691429 41.691429 0 0 0-58.514286-5.12L554.422857 401.554286l-80.457143-73.142857a40.96 40.96 0 0 0-52.662857 0L230.4 480.548571a41.691429 41.691429 0 0 0 25.6 73.142858z" p-id="5120" fill="#1296db"></path></svg>